<svg width="524" height="205" viewBox="0 0 524 205" fill="none" xmlns="http://www.w3.org/2000/svg">
<path d="M159.374 27.7541L157.5 21.642C157.338 21.0621 156.808 20.5057 155.912 19.9729C155.314 19.6281 155.015 19.299 155.015 18.9855V17.34C155.015 16.8698 155.409 16.6347 156.197 16.6347H172.9C173.443 16.6347 173.782 16.7131 173.918 16.8698C174.081 17.0265 174.162 17.3791 174.162 17.9277C174.162 18.7583 174.081 19.2598 173.918 19.4322C173.782 19.5889 173.443 19.7535 172.9 19.9259C172.085 20.1766 171.677 20.4274 171.677 20.6781C171.677 21.0072 171.786 21.4931 172.003 22.1356L176.648 37.1808L181.495 21.642C181.523 21.4852 181.536 21.3207 181.536 21.1483C181.536 20.4274 180.844 19.8788 179.458 19.5027C178.752 19.3146 178.386 18.7818 178.359 17.9042C178.359 17.6691 178.345 17.5045 178.318 17.4105V17.1989C178.318 16.8228 178.807 16.6347 179.784 16.6347H189.154C189.806 16.6347 190.227 16.7052 190.417 16.8463C190.607 16.9717 190.702 17.2538 190.702 17.6926C190.702 17.8336 190.689 17.9747 190.662 18.1157L190.539 19.0325C190.431 19.393 189.996 19.7143 189.236 19.9964C188.475 20.2785 187.986 20.7565 187.769 21.4304L177.951 52.4611C177.571 53.6835 177.259 54.4123 177.014 54.6474C176.77 54.8825 176.322 55 175.67 55H168.826C168.092 55 167.631 54.5533 167.441 53.66C167.413 53.4876 167.386 53.3544 167.359 53.2604L162.185 36.6872L157.052 53.5425C156.862 54.2164 156.659 54.6239 156.441 54.7649C156.224 54.9216 155.871 55 155.382 55H148.253C147.438 55 146.854 54.1772 146.501 52.5316C146.447 52.2339 146.392 52.0066 146.338 51.8499L136.602 21.4304C136.384 20.7878 135.814 20.3177 134.891 20.0199C134.13 19.7848 133.75 19.44 133.75 18.9855V17.1754C133.75 16.8149 134.13 16.6347 134.891 16.6347H151.023C151.566 16.6347 151.946 16.7209 152.164 16.8933C152.381 17.05 152.49 17.4262 152.49 18.0217C152.49 18.6956 152.449 19.1187 152.367 19.2911C152.286 19.4635 152.028 19.6594 151.593 19.8788C151.05 20.1766 150.779 20.4822 150.779 20.7957C150.779 21.1561 150.86 21.6028 151.023 22.1356L156.197 38.0506L159.374 27.7541Z" fill="#00B700"/>
<path d="M207.12 46.4665H196.935L196.487 48.6293C196.487 48.6763 196.46 48.7468 196.406 48.8409C196.188 49.2954 196.08 49.7028 196.08 50.0633C196.08 50.6275 196.718 51.1055 197.994 51.4973C198.673 51.701 199.094 51.9126 199.257 52.132C199.42 52.3514 199.502 52.7119 199.502 53.2134C199.502 53.8559 199.434 54.2477 199.298 54.3888C199.189 54.5142 198.904 54.5769 198.443 54.5769H187.688C187.09 54.5769 186.791 54.2164 186.791 53.4955C186.791 52.6335 187.267 51.9361 188.217 51.4033C189.113 50.9174 189.629 50.4002 189.765 49.8517L197.302 22.1826C197.438 21.7595 197.506 21.3912 197.506 21.0778C197.506 20.5919 196.922 20.1609 195.754 19.7848C195.211 19.5967 194.939 19.1814 194.939 18.5389C194.939 17.6769 195.021 17.1441 195.183 16.9403C195.346 16.7366 195.781 16.6347 196.487 16.6347H212.049C213 16.6347 213.665 16.8933 214.045 17.4105C214.426 17.9277 214.806 19.0561 215.186 20.7957C215.349 21.4696 215.512 22.1356 215.675 22.7939L222.356 48.6293C222.682 49.8831 223.483 50.8391 224.76 51.4973C225.113 51.6697 225.343 51.8107 225.452 51.9204C225.561 52.0145 225.615 52.3201 225.615 52.8372C225.615 53.6365 225.52 54.1302 225.33 54.3183C225.14 54.4907 224.732 54.5769 224.108 54.5769H205.979C205.436 54.5769 205.164 54.2791 205.164 53.6835C205.164 52.9313 205.232 52.4611 205.368 52.2731C205.504 52.085 205.898 51.8656 206.549 51.6148C207.5 51.27 207.975 50.8312 207.975 50.2984C207.975 49.7498 207.69 48.4726 207.12 46.4665ZM202.231 25.4973L197.709 43.7631H206.672L202.231 25.4973Z" fill="#00B700"/>
<path d="M246.473 37.8861V49.5461C246.473 50.0946 246.527 50.4629 246.636 50.651C246.772 50.8391 247.125 51.035 247.695 51.2387C248.429 51.5051 248.795 51.9518 248.795 52.5787C248.795 53.4876 248.646 54.0518 248.347 54.2712C248.075 54.475 247.559 54.5769 246.799 54.5769H229.567C228.589 54.5769 228.1 54.1694 228.1 53.3544C228.1 52.5708 228.141 52.0693 228.222 51.8499C228.304 51.6148 228.575 51.4503 229.037 51.3562C230.531 51.0115 231.278 50.3376 231.278 49.3345V21.8065C231.278 20.7878 230.626 20.1688 229.322 19.9494C228.67 19.824 228.263 19.6986 228.1 19.5732C227.937 19.4479 227.856 19.0796 227.856 18.4684C227.856 17.2459 228.426 16.6347 229.567 16.6347H252.095C256.576 16.6347 260.569 17.6064 264.072 19.5497C267.603 21.4931 269.368 24.1025 269.368 27.3779C269.368 32.0325 265.253 35.0729 257.024 36.4991C264.547 37.4551 268.309 40.2055 268.309 44.7505V50.3454C268.309 50.8155 268.621 51.1682 269.246 51.4033C269.979 51.6854 270.346 52.1163 270.346 52.6962C270.346 53.6052 270.251 54.1459 270.061 54.3183C269.871 54.4907 269.368 54.5769 268.553 54.5769H257.635C256.332 54.5769 255.259 54.1537 254.417 53.3074C253.575 52.4454 253.154 51.3876 253.154 50.1338V40.66C253.154 38.8107 251.538 37.8861 248.306 37.8861H246.473ZM246.473 19.3146V35.1591H249.121C251.81 35.1591 253.154 33.5998 253.154 30.481V22.9114C253.154 21.5949 252.72 20.6703 251.851 20.1374C251.009 19.5889 249.678 19.3146 247.858 19.3146H246.473Z" fill="#00B700"/>
<path d="M283.749 19.2676H281.915C281.318 19.2676 280.829 19.5027 280.449 19.9729C280.069 20.4274 279.675 21.6733 279.268 23.7107C279.077 24.604 278.779 25.1682 278.371 25.4033C277.964 25.6227 277.149 25.7324 275.927 25.7324C274.759 25.7324 273.999 25.654 273.646 25.4973C273.32 25.3249 273.157 24.9958 273.157 24.5099C273.157 24.2278 273.17 23.9458 273.197 23.6637L273.686 18.1863C273.741 17.5437 273.931 17.1284 274.257 16.9403C274.583 16.7366 275.397 16.6347 276.701 16.6347H306.562C307.431 16.6347 307.961 16.6974 308.151 16.8228C308.341 16.9482 308.49 17.4027 308.599 18.1863L309.292 23.0289C309.346 23.4051 309.373 23.789 309.373 24.1808C309.373 24.651 309.265 25.0115 309.047 25.2622C308.857 25.513 308.219 25.6383 307.133 25.6383C305.747 25.6383 304.851 25.56 304.444 25.4033C304.064 25.2465 303.751 24.7529 303.507 23.9222C303.072 22.5588 302.597 21.4461 302.081 20.5841C301.565 19.7064 300.927 19.2676 300.166 19.2676H298.944V49.4521C298.944 50.314 299.596 50.9096 300.9 51.2387C301.443 51.3797 301.796 51.5521 301.959 51.7559C302.149 51.9439 302.244 52.3514 302.244 52.9783C302.244 53.7776 302.122 54.2477 301.877 54.3888C301.633 54.5142 301.076 54.5769 300.207 54.5769H282.282C281.576 54.5769 281.114 54.4985 280.897 54.3418C280.707 54.1851 280.612 53.7384 280.612 53.0018C280.612 52.1242 281.033 51.5913 281.875 51.4033C282.69 51.2152 283.206 51.035 283.423 50.8626C283.64 50.6745 283.749 50.3611 283.749 49.9222V19.2676Z" fill="#00B700"/>
<path d="M330.639 19.5262V32.9494H333.409C334.169 32.9494 334.726 32.8553 335.079 32.6673C335.432 32.4792 335.704 32.0717 335.894 31.4448C336.22 30.3321 336.478 29.6661 336.668 29.4467C336.885 29.2272 337.211 29.1175 337.646 29.1175C339.791 29.1175 341 29.1724 341.271 29.2821C341.57 29.3761 341.719 29.7679 341.719 30.4575V38.2857C341.719 38.7715 341.584 39.0928 341.312 39.2495C341.04 39.3906 340.199 39.4611 338.786 39.4611C337.863 39.4611 337.238 39.3671 336.912 39.179C336.614 38.9753 336.315 38.4189 336.016 37.5099C335.717 36.6793 335.419 36.17 335.12 35.9819C334.848 35.7939 334.414 35.6998 333.816 35.6998H330.639V51.8969H332.798C334.129 51.8969 335.038 51.6854 335.527 51.2622C336.043 50.8234 336.858 49.5775 337.972 47.5244C338.433 46.6624 338.908 46.0983 339.397 45.8318C339.886 45.5654 340.742 45.4322 341.964 45.4322C343.648 45.4322 344.49 45.7456 344.49 46.3725C344.49 46.5606 344.435 46.8348 344.327 47.1953L342.819 52.5316C342.548 53.5033 342.317 54.091 342.127 54.2948C341.964 54.4828 341.421 54.5769 340.497 54.5769H313.325C312.646 54.5769 312.211 54.4907 312.021 54.3183C311.831 54.1302 311.736 53.6052 311.736 52.7432C311.736 52.1947 312.225 51.7951 313.203 51.5443C314.696 51.1838 315.443 50.6902 315.443 50.0633V20.7486C315.416 20.4509 314.805 20.1531 313.61 19.8553C312.795 19.6516 312.306 19.4557 312.143 19.2676C312.008 19.0796 311.94 18.6251 311.94 17.9042C311.94 17.2929 312.021 16.9325 312.184 16.8228C312.347 16.6974 312.822 16.6347 313.61 16.6347H339.601C340.253 16.6347 340.728 16.6974 341.027 16.8228C341.326 16.9482 341.556 17.2459 341.719 17.7161L343.797 23.7812C343.906 24.0946 343.96 24.3062 343.96 24.4159C343.96 24.8391 343.308 25.0506 342.005 25.0506C340.538 25.0506 339.56 24.9566 339.071 24.7685C338.583 24.5648 338.107 24.0711 337.646 23.2875C336.804 21.877 336.07 20.8975 335.446 20.349C334.848 19.8005 334.169 19.5262 333.409 19.5262H330.639Z" fill="#00B700"/>
<path d="M375.899 52.2731C373.455 54.091 370.44 55 366.855 55C361.26 55 356.684 53.1037 353.126 49.311C349.568 45.5184 347.789 41.0205 347.789 35.8174C347.789 29.9247 349.799 25.1525 353.819 21.5009C357.838 17.8336 362.591 16 368.077 16C370.712 16 373.047 16.3918 375.084 17.1754C375.736 17.4105 376.238 17.528 376.591 17.528C377.08 17.528 377.501 17.2616 377.854 16.7288C378.18 16.2429 378.751 16 379.565 16H380.054L381.358 16.047C382.227 16.1254 382.77 16.478 382.987 17.1049L385.595 24.5805C385.866 25.3484 386.002 25.8656 386.002 26.132C386.002 26.6805 385.282 26.9548 383.843 26.9548C382.431 26.9548 381.521 26.8373 381.113 26.6022C380.706 26.3671 379.891 25.5443 378.669 24.1338C377.04 22.2218 375.6 20.8975 374.351 20.1609C373.129 19.4087 371.812 19.0325 370.399 19.0325C366.678 19.0325 364.818 20.7408 364.818 24.1573V49.4051C364.818 51.2544 365.837 52.179 367.873 52.179C370.101 52.179 371.214 51.2544 371.214 49.4051V37.1103C371.214 36.311 370.739 35.7938 369.788 35.5588C368.756 35.308 368.24 34.7987 368.24 34.0307C368.24 33.2001 368.376 32.7064 368.648 32.5497C368.919 32.3773 369.503 32.2911 370.399 32.2911H387.632C388.474 32.2911 389.03 32.3773 389.302 32.5497C389.601 32.7221 389.75 33.1139 389.75 33.7251C389.75 34.3677 389.655 34.7987 389.465 35.0181C389.302 35.2375 388.881 35.4177 388.202 35.5588C387.224 35.7625 386.735 36.1935 386.735 36.8517V52.8372C386.735 53.7932 386.627 54.3888 386.409 54.6239C386.192 54.8746 385.622 55 384.698 55C383.857 55 383.245 54.9608 382.865 54.8825C382.512 54.8198 382.01 54.6082 381.358 54.2477C379.538 53.2291 377.719 52.5708 375.899 52.2731Z" fill="#00B700"/>
<path d="M60.875 130.812C68.5 133.479 73.75 136.792 76.625 140.75C79.5 144.667 80.9375 150.083 80.9375 157C80.9375 167.542 78.2917 175.396 73 180.562C67.7083 185.729 59.5208 188.312 48.4375 188.312H17.875C16.625 188.312 16 187.667 16 186.375V182.625C16 181.583 16.5625 180.812 17.6875 180.312C20.0625 179.188 21.25 177.542 21.25 175.375V99.9375C21.25 98.8958 21.0833 98.1875 20.75 97.8125C20.4167 97.4375 19.4167 96.8542 17.75 96.0625C16.9167 95.6875 16.4167 95.2708 16.25 94.8125C16.125 94.3542 16.0625 93.2292 16.0625 91.4375C16.0625 89.8542 16.2708 88.7917 16.6875 88.25C17.1458 87.7083 17.9167 87.4375 19 87.4375H53.25C61.5 87.4375 67.8333 89.5417 72.25 93.75C76.6667 97.9583 78.875 103.312 78.875 109.812C78.875 115.229 77.125 119.771 73.625 123.438C70.1667 127.104 65.9167 129.562 60.875 130.812ZM44.5 94.5V127.312H47.8125C49.8958 127.312 51.5208 126.708 52.6875 125.5C53.8958 124.292 54.5833 122.292 54.75 119.5C54.9583 116.667 55.0625 113.104 55.0625 108.812C55.0625 102.812 54.4792 98.9375 53.3125 97.1875C52.1875 95.3958 50.3542 94.5 47.8125 94.5H44.5ZM44.5 134.438V181.125C48.3333 181.125 50.8958 180.604 52.1875 179.562C53.5208 178.521 54.2917 176.458 54.5 173.375C54.75 170.292 54.875 165.083 54.875 157.75C54.875 156.25 54.8125 152.854 54.6875 147.562C54.5625 142.229 54.3125 139.021 53.9375 137.938C53.5625 136.854 52.8958 136 51.9375 135.375C51.0208 134.75 49.6458 134.438 47.8125 134.438H44.5Z" fill="#F37B00"/>
<path d="M115.75 166.75H100.125L99.4375 172.5C99.4375 172.625 99.3958 172.812 99.3125 173.062C98.9792 174.271 98.8125 175.354 98.8125 176.312C98.8125 177.812 99.7917 179.083 101.75 180.125C102.792 180.667 103.438 181.229 103.688 181.812C103.938 182.396 104.062 183.354 104.062 184.688C104.062 186.396 103.958 187.438 103.75 187.812C103.583 188.146 103.146 188.312 102.438 188.312H85.9375C85.0208 188.312 84.5625 187.354 84.5625 185.438C84.5625 183.146 85.2917 181.292 86.75 179.875C88.125 178.583 88.9167 177.208 89.125 175.75L100.688 102.188C100.896 101.062 101 100.083 101 99.25C101 97.9583 100.104 96.8125 98.3125 95.8125C97.4792 95.3125 97.0625 94.2083 97.0625 92.5C97.0625 90.2083 97.1875 88.7917 97.4375 88.25C97.6875 87.7083 98.3542 87.4375 99.4375 87.4375H123.312C124.771 87.4375 125.792 88.125 126.375 89.5C126.958 90.875 127.542 93.875 128.125 98.5C128.375 100.292 128.625 102.062 128.875 103.812L139.125 172.5C139.625 175.833 140.854 178.375 142.812 180.125C143.354 180.583 143.708 180.958 143.875 181.25C144.042 181.5 144.125 182.312 144.125 183.688C144.125 185.812 143.979 187.125 143.688 187.625C143.396 188.083 142.771 188.312 141.812 188.312H114C113.167 188.312 112.75 187.521 112.75 185.938C112.75 183.938 112.854 182.688 113.062 182.188C113.271 181.688 113.875 181.104 114.875 180.438C116.333 179.521 117.062 178.354 117.062 176.938C117.062 175.479 116.625 172.083 115.75 166.75ZM108.25 111L101.312 159.562H115.062L108.25 111Z" fill="#F37B00"/>
<path d="M175.75 130.688H185.75V99.25C185.75 98.25 185.646 97.5833 185.438 97.25C185.271 96.9167 184.771 96.5 183.938 96C183.021 95.5 182.562 94.3333 182.562 92.5C182.562 90.1667 182.667 88.75 182.875 88.25C183.083 87.7083 183.667 87.4375 184.625 87.4375H211.75C212.958 87.4375 213.688 87.6667 213.938 88.125C214.188 88.5417 214.312 89.9583 214.312 92.375C214.312 93.8333 214.167 94.7083 213.875 95C213.625 95.25 212.792 95.7292 211.375 96.4375C209.833 97.2708 209.062 98.5625 209.062 100.312V175.125C209.062 177.083 209.958 178.646 211.75 179.812C213.208 180.729 213.938 181.562 213.938 182.312V186.25C213.938 187.083 213.812 187.646 213.562 187.938C213.312 188.188 212.583 188.312 211.375 188.312H184.125C183.208 188.312 182.646 188.146 182.438 187.812C182.229 187.479 182.125 185.938 182.125 183.188C182.125 181.812 182.688 180.729 183.812 179.938C185.104 179.021 185.75 177.958 185.75 176.75V137.75H175.75V177.125C175.75 178.458 176.292 179.521 177.375 180.312C178.458 181.188 179 182.417 179 184C179 186.208 178.875 187.479 178.625 187.812C178.375 188.146 177.875 188.312 177.125 188.312H149.688C148.812 188.312 148.271 188.125 148.062 187.75C147.854 187.375 147.75 185.896 147.75 183.312C147.75 182.104 147.854 181.312 148.062 180.938C148.271 180.562 148.854 180.104 149.812 179.562C151.562 178.646 152.438 177.417 152.438 175.875V100.312C152.438 99.1042 151.667 97.9583 150.125 96.875C148.583 95.75 147.812 94.1458 147.812 92.0625C147.812 89.8542 147.979 88.5417 148.312 88.125C148.688 87.6667 149.479 87.4375 150.688 87.4375H176.312C177.438 87.4375 178.208 87.6458 178.625 88.0625C179.042 88.4375 179.25 89.3542 179.25 90.8125V93.75C179.167 94.5 178.646 95.1667 177.688 95.75C176.396 96.4583 175.75 97.625 175.75 99.25V130.688Z" fill="#F37B00"/>
<path d="M247.875 166.75H232.25L231.562 172.5C231.562 172.625 231.521 172.812 231.438 173.062C231.104 174.271 230.938 175.354 230.938 176.312C230.938 177.812 231.917 179.083 233.875 180.125C234.917 180.667 235.562 181.229 235.812 181.812C236.062 182.396 236.188 183.354 236.188 184.688C236.188 186.396 236.083 187.438 235.875 187.812C235.708 188.146 235.271 188.312 234.562 188.312H218.062C217.146 188.312 216.688 187.354 216.688 185.438C216.688 183.146 217.417 181.292 218.875 179.875C220.25 178.583 221.042 177.208 221.25 175.75L232.812 102.188C233.021 101.062 233.125 100.083 233.125 99.25C233.125 97.9583 232.229 96.8125 230.438 95.8125C229.604 95.3125 229.188 94.2083 229.188 92.5C229.188 90.2083 229.312 88.7917 229.562 88.25C229.812 87.7083 230.479 87.4375 231.562 87.4375H255.438C256.896 87.4375 257.917 88.125 258.5 89.5C259.083 90.875 259.667 93.875 260.25 98.5C260.5 100.292 260.75 102.062 261 103.812L271.25 172.5C271.75 175.833 272.979 178.375 274.938 180.125C275.479 180.583 275.833 180.958 276 181.25C276.167 181.5 276.25 182.312 276.25 183.688C276.25 185.812 276.104 187.125 275.812 187.625C275.521 188.083 274.896 188.312 273.938 188.312H246.125C245.292 188.312 244.875 187.521 244.875 185.938C244.875 183.938 244.979 182.688 245.188 182.188C245.396 181.688 246 181.104 247 180.438C248.458 179.521 249.188 178.354 249.188 176.938C249.188 175.479 248.75 172.083 247.875 166.75ZM240.375 111L233.438 159.562H247.188L240.375 111Z" fill="#F37B00"/>
<path d="M308.25 143.938V174.938C308.25 176.396 308.333 177.375 308.5 177.875C308.708 178.375 309.25 178.896 310.125 179.438C311.25 180.146 311.812 181.333 311.812 183C311.812 185.417 311.583 186.917 311.125 187.5C310.708 188.042 309.917 188.312 308.75 188.312H282.312C280.812 188.312 280.062 187.229 280.062 185.062C280.062 182.979 280.125 181.646 280.25 181.062C280.375 180.438 280.792 180 281.5 179.75C283.792 178.833 284.938 177.042 284.938 174.375V101.188C284.938 98.4792 283.938 96.8333 281.938 96.25C280.938 95.9167 280.312 95.5833 280.062 95.25C279.812 94.9167 279.688 93.9375 279.688 92.3125C279.688 89.0625 280.562 87.4375 282.312 87.4375H316.875C323.75 87.4375 329.875 90.0208 335.25 95.1875C340.667 100.354 343.375 107.292 343.375 116C343.375 128.375 337.062 136.458 324.438 140.25C335.979 142.792 341.75 150.104 341.75 162.188V177.062C341.75 178.312 342.229 179.25 343.188 179.875C344.312 180.625 344.875 181.771 344.875 183.312C344.875 185.729 344.729 187.167 344.438 187.625C344.146 188.083 343.375 188.312 342.125 188.312H325.375C323.375 188.312 321.729 187.188 320.438 184.938C319.146 182.646 318.5 179.833 318.5 176.5V151.312C318.5 146.396 316.021 143.938 311.062 143.938H308.25ZM308.25 94.5625V136.688H312.312C316.438 136.688 318.5 132.542 318.5 124.25V104.125C318.5 100.625 317.833 98.1667 316.5 96.75C315.208 95.2917 313.167 94.5625 310.375 94.5625H308.25Z" fill="#F37B00"/>
<path d="M348.75 92.6875V89.375C348.75 88.0833 349.438 87.4375 350.812 87.4375H380.75C381.875 87.4375 382.604 87.5833 382.938 87.875C383.271 88.1667 383.438 89.0417 383.438 90.5C383.438 92.7083 383.312 94.0833 383.062 94.625C382.854 95.1667 382.354 95.5 381.562 95.625C378.979 96.0833 377.688 97.7292 377.688 100.562V175.688C377.688 177.271 378.625 178.521 380.5 179.438C381.708 180.021 382.438 180.542 382.688 181C382.938 181.458 383.062 182.25 383.062 183.375V185.812C383.062 187.146 382.938 187.896 382.688 188.062C382.438 188.229 381.792 188.312 380.75 188.312H350.25C349.083 188.312 348.5 187.854 348.5 186.938C348.5 183.938 348.604 182.104 348.812 181.438C349.021 180.771 349.75 180.25 351 179.875C353.25 179.25 354.375 178.062 354.375 176.312V102.125C354.375 100.375 354.167 99.0625 353.75 98.1875C353.333 97.2708 352.417 96.5208 351 95.9375C349.958 95.4792 349.312 95.0833 349.062 94.75C348.854 94.375 348.75 93.6875 348.75 92.6875Z" fill="#F37B00"/>
<path d="M399.438 169.562H430.75C432.167 169.562 433.271 169.042 434.062 168C434.896 166.917 435.604 164.917 436.188 162C436.438 160.792 436.833 160 437.375 159.625C437.917 159.208 439.062 159 440.812 159C443.396 159 444.688 159.562 444.688 160.688C444.688 161.062 444.625 161.5 444.5 162C444.292 163.125 443.854 165.812 443.188 170.062C442.438 174.688 441.688 178.729 440.938 182.188C440.229 185.604 439.688 187.479 439.312 187.812C438.979 188.146 438.021 188.312 436.438 188.312H387.125V173.688C387.125 171.646 388.875 169.062 392.375 165.938C394.125 164.354 398.167 159.583 404.5 151.625C410.875 143.667 415 137.167 416.875 132.125C418.75 127.083 419.688 120.354 419.688 111.938C419.688 104.896 419 100.375 417.625 98.375C416.292 96.3333 414.354 95.3125 411.812 95.3125C409.896 95.3125 408.396 95.8542 407.312 96.9375C406.229 98.0208 405.688 99.4375 405.688 101.188C405.688 102.188 405.792 103.396 406 104.812C406.25 106.688 406.375 108.5 406.375 110.25C406.375 114.042 405.5 116.979 403.75 119.062C402.042 121.146 399.854 122.188 397.188 122.188C394.354 122.188 392.104 121.062 390.438 118.812C388.771 116.562 387.938 113.854 387.938 110.688C387.938 104.104 390.396 98.5208 395.312 93.9375C400.229 89.3125 406.812 87 415.062 87C423.438 87 430.312 89.6458 435.688 94.9375C441.104 100.229 443.812 107.083 443.812 115.5C443.812 120.167 442.854 124.646 440.938 128.938C439.021 133.188 436.396 136.979 433.062 140.312C429.771 143.604 424.938 147.75 418.562 152.75C409.812 159.542 403.438 165.146 399.438 169.562Z" fill="#F37B00"/>
<path d="M498.938 152.188H504.25C505.583 152.188 506.458 152.417 506.875 152.875C507.292 153.333 507.5 154.25 507.5 155.625V159.312C507.5 160.396 507.333 161.125 507 161.5C506.667 161.875 505.875 162.062 504.625 162.062H498.938V173.812C498.938 176.604 500.125 178.625 502.5 179.875C503.792 180.542 504.438 181.708 504.438 183.375V186.188C504.438 187.104 504.271 187.688 503.938 187.938C503.604 188.188 502.833 188.312 501.625 188.312H475.312C474.062 188.312 473.292 188.104 473 187.688C472.708 187.229 472.562 185.75 472.562 183.25C472.562 181.75 473.188 180.646 474.438 179.938C476.021 179.021 476.812 177.75 476.812 176.125V162.062H452.062C450.729 162.062 449.938 161.917 449.688 161.625C449.438 161.292 449.312 160.562 449.312 159.438V152.188C449.312 151.438 449.375 150.854 449.5 150.438C449.625 149.979 450.521 148.417 452.188 145.75L487.312 89.5625C487.938 88.5625 488.688 87.8958 489.562 87.5625C490.479 87.1875 492.125 87 494.5 87C496.792 87 498.104 87.1458 498.438 87.4375C498.771 87.6875 498.938 88.4167 498.938 89.625V152.188ZM476.812 121.562L457.625 152.188H476.812V121.562Z" fill="#F37B00"/>
</svg>
